<svg xmlns="http://www.w3.org/2000/svg" width="33.5" height="29.747" viewBox="0 0 33.5 29.747">
  <g id="iocne_accueil" data-name="iocne accueil" transform="translate(14359.89 3063.628)">
    <g id="Tracé_127968" data-name="Tracé 127968" transform="translate(-14358.89 -3049.5)" fill="none">
      <path d="M15.75,0A15.626,15.626,0,0,1,31.5,15.5H0A15.543,15.543,0,0,1,15.75,0Z" stroke="none"/>
      <path d="M 15.75 1 C 11.79110908508301 1 8.084310531616211 2.493550300598145 5.312410354614258 5.205530166625977 C 2.769645690917969 7.693332195281982 1.271438598632812 10.96328258514404 1.033496856689453 14.5 L 30.46569633483887 14.5 C 30.22520446777344 11.00622940063477 28.72678375244141 7.753528118133545 26.18551063537598 5.252590179443359 C 23.39894866943359 2.510259628295898 19.69289016723633 1 15.75 1 M 15.75 0 C 24.44849014282227 0 31.5 6.939590454101562 31.5 15.5 C 13.93190956115723 15.5 15.33967971801758 15.5 0 15.5 C 0 6.808650016784668 7.051519393920898 0 15.75 0 Z" stroke="none" fill="#c50"/>
    </g>
    <line id="Ligne_140" data-name="Ligne 140" x2="32.5" transform="translate(-14359.39 -3034.381)" fill="none" stroke="#c50" stroke-linecap="round" stroke-width="1"/>
    <g id="Ellipse_320" data-name="Ellipse 320" transform="translate(-14344.89 -3052)" fill="none" stroke="#c50" stroke-width="1">
      <circle cx="1.75" cy="1.75" r="1.75" stroke="none"/>
      <circle cx="1.75" cy="1.75" r="1.25" fill="none"/>
    </g>
    <path id="Tracé_127969" data-name="Tracé 127969" d="M-14408.438-3014.934s-.8-11.279,12.761-11.942" transform="translate(53 -19.705)" fill="none" stroke="#c50" stroke-linecap="round" stroke-width="1"/>
    <path id="Tracé_127974" data-name="Tracé 127974" d="M-14401.594-3038.42a1.8,1.8,0,0,1,.761,2.1c-.4,1.479-1.509,1.748-.761,3.057" transform="translate(52.26 -19)" fill="none" stroke="#c50" stroke-linecap="round" stroke-width="1.5"/>
    <path id="Tracé_127973" data-name="Tracé 127973" d="M-14401.594-3038.42a2.657,2.657,0,0,1,.761,2.766c-.4,1.944-1.509,2.3-.761,4.018" transform="translate(58.059 -24.162)" fill="none" stroke="#c50" stroke-linecap="round" stroke-width="1.5"/>
    <path id="Tracé_127975" data-name="Tracé 127975" d="M-14401.594-3038.42a1.8,1.8,0,0,1,.761,2.1c-.4,1.479-1.509,1.748-.761,3.057" transform="translate(64.059 -19)" fill="none" stroke="#c50" stroke-linecap="round" stroke-width="1.5"/>
  </g>
</svg>
