<svg xmlns="http://www.w3.org/2000/svg" width="22" height="27" viewBox="0 0 22 27">
  <g id="user_duo" transform="translate(-4.3 0.5)">
    <path id="Tracé_882" data-name="Tracé 882" d="M4.8,35.465A6.7,6.7,0,0,1,11.53,28.8H19.07a6.7,6.7,0,0,1,6.73,6.665,3.074,3.074,0,0,1-2.55,3.085,49.789,49.789,0,0,1-7.95.649,49.788,49.788,0,0,1-7.95-.649A3.074,3.074,0,0,1,4.8,35.465Z" transform="translate(0 -13.2)" fill="none" stroke="#000" stroke-width="1"/>
    <path id="Tracé_883" data-name="Tracé 883" d="M12,6.5a6.6,6.6,0,0,1,13.2,0A6.6,6.6,0,0,1,12,6.5Z" transform="translate(-3.3)" fill="none" stroke="#000" stroke-width="1"/>
  </g>
</svg>
