<svg xmlns="http://www.w3.org/2000/svg" width="26.018" height="31" viewBox="0 0 26.018 31">
  <g id="icone_enregistrer" data-name="icone enregistrer" transform="translate(0.479 -14.418)">
    <path id="Tracé_127958" data-name="Tracé 127958" d="M24.12,28.129c-8.657-1.631-5.744-13.212-5.744-13.212H7.115C9.033,28.629,3.988,26.262.873,28.128-.373,28.875.081,30.962.081,32.5a12.416,12.416,0,1,0,24.831,0c0-1.539.7-4.092-.792-4.372M8.329,14.917h0Z" transform="translate(0 0.001)" fill="none" stroke="#000" stroke-width="1"/>
    <path id="Tracé_127959" data-name="Tracé 127959" d="M62.833,108.522l-.03-.215h.217v.138h-.059l.008.058Z" transform="translate(-55.324 -92.961)" fill="#fff"/>
    <path id="Tracé_127960" data-name="Tracé 127960" d="M76.409,108.446h-.271v-.138h.271Zm-.543,0H75.6v-.138h.271Zm-.543,0h-.271v-.138h.271Zm-.543,0h-.271v-.138h.271Zm-.543,0h-.271v-.138h.271Zm-.543,0h-.271v-.138H73.7Zm-.543,0h-.271v-.138h.271Zm-.543,0h-.272v-.138h.272Zm-.543,0H71.8v-.138h.271Zm-.543,0h-.271v-.138h.271Zm-.543,0h-.272v-.138h.272Zm-.543,0h-.271v-.138h.271Zm-.543,0h-.271v-.138h.271Zm-.543,0h-.271v-.138h.271Zm-.543,0h-.271v-.138h.271Zm-.543,0h-.272v-.138h.272Zm-.543,0h-.271v-.138h.271Zm-.543,0h-.272v-.138h.272Z" transform="translate(-58.942 -92.962)" fill="#fff"/>
    <path id="Tracé_127961" data-name="Tracé 127961" d="M149.149,108.525l-.135-.027.011-.052h-.053v-.138h.225l-.019.084s-.011.047-.028.133" transform="translate(-131.232 -92.962)" fill="#fff"/>
    <path id="Tracé_127962" data-name="Tracé 127962" d="M18.163,140.853h-.048v-.138h.048l.227,0,0,.138-.23,0m-.326,0q-.139,0-.278-.011l.007-.138q.137.007.274.011Zm.833-.007-.006-.138c.092,0,.183-.009.274-.015l.009.138c-.093.006-.185.012-.278.015m-1.388-.022q-.139-.011-.277-.025l.014-.137q.136.013.274.024Zm1.943-.015-.013-.138q.137-.013.273-.028l.016.137q-.138.016-.277.029m-2.5-.04c-.092-.011-.184-.024-.275-.038l.02-.137q.136.02.272.037Zm3.049-.024-.019-.137q.136-.019.271-.042l.023.136q-.137.023-.275.042m-3.6-.058c-.091-.016-.183-.033-.273-.051l.027-.136c.09.018.18.035.27.05Zm4.148-.032-.026-.136q.135-.026.269-.055l.029.135q-.136.029-.272.055m-4.693-.076q-.136-.03-.271-.064l.034-.134c.089.022.178.043.267.063Zm5.236-.041-.033-.134q.134-.033.266-.068l.036.133q-.134.036-.269.069m-5.776-.094q-.134-.038-.268-.078l.04-.132q.132.04.265.077Zm6.313-.05-.039-.133q.132-.039.263-.081l.042.132c-.088.028-.177.055-.266.082m-6.847-.112c-.088-.029-.176-.059-.264-.09l.047-.13q.13.046.261.089Zm7.376-.057-.045-.131q.13-.045.258-.093l.049.13c-.087.032-.174.064-.262.094m-7.9-.13q-.13-.05-.259-.1l.053-.128q.128.053.256.1Zm8.421-.065L22.4,139.9q.127-.051.253-.105l.055.127q-.127.055-.256.107m-8.936-.148q-.128-.056-.254-.116l.059-.125q.124.059.25.114Zm9.445-.071-.058-.126c.083-.038.166-.077.247-.117l.061.124q-.124.061-.251.119m-9.949-.166q-.125-.062-.248-.128l.065-.122q.121.065.244.126Zm10.447-.078-.064-.123q.122-.063.242-.13l.067.121c-.081.045-.163.088-.245.131m-10.939-.184q-.121-.068-.241-.139l.071-.119c.079.047.158.093.238.138Zm11.425-.084-.07-.119q.119-.069.235-.141l.072.118q-.118.073-.238.143m-11.9-.2c-.079-.049-.157-.1-.234-.151l.076-.115q.115.076.231.149ZM24.422,139l-.075-.116q.115-.075.228-.152l.078.114q-.115.078-.231.154m-12.841-.217q-.114-.079-.226-.162l.082-.111q.111.081.224.16Zm13.3-.1-.08-.112q.112-.08.221-.163l.083.11q-.111.084-.224.165m-13.748-.232q-.11-.085-.218-.172l.087-.108q.107.086.216.17Zm14.191-.1-.086-.108q.107-.085.213-.173l.088.106q-.107.089-.216.175M10.7,138.107c-.071-.06-.141-.121-.21-.182l.092-.1q.1.091.207.18ZM25.752,138l-.091-.1q.1-.09.2-.183l.093.1c-.068.063-.137.124-.207.185m-15.467-.261q-.1-.095-.2-.192l.1-.1q.1.1.2.19Zm15.876-.114-.1-.1q.1-.1.2-.192l.1.1q-.1.1-.2.195m-16.274-.274c-.064-.066-.128-.133-.191-.2l.1-.094q.093.1.189.2Zm16.666-.12-.1-.1q.095-.1.187-.2l.1.093q-.093.1-.189.2M9.51,136.942q-.092-.1-.182-.21l.106-.089q.089.1.18.207Zm17.418-.126-.1-.09q.09-.1.178-.21l.107.088q-.089.108-.179.213m-17.777-.3q-.087-.108-.172-.218l.109-.084q.084.109.17.216Zm18.13-.132-.109-.085c.057-.072.113-.145.168-.219l.11.083q-.083.112-.169.221m-18.469-.308c-.055-.075-.109-.15-.161-.226l.113-.079q.078.113.16.223Zm18.8-.138-.112-.08q.08-.112.157-.226l.114.078q-.078.115-.159.229m-19.12-.317q-.077-.116-.151-.233l.117-.074q.073.116.149.23Zm19.432-.145-.116-.075q.074-.116.146-.233l.118.072q-.073.119-.148.236M8.2,135.154q-.071-.119-.14-.239l.12-.068q.068.119.138.237ZM28.217,135l-.119-.07c.046-.079.091-.159.135-.239l.121.066q-.067.122-.137.243m-20.292-.332c-.044-.081-.086-.163-.128-.246l.123-.062q.062.122.127.243Zm20.56-.157-.123-.063c.042-.081.084-.163.124-.246l.124.061c-.041.083-.083.167-.125.249m-20.811-.337c-.04-.083-.079-.167-.117-.251l.126-.056q.056.125.115.248Zm21.055-.164-.126-.058q.057-.125.112-.252l.127.055q-.055.128-.114.254m-21.283-.342q-.054-.128-.105-.257l.128-.051q.051.128.1.255Zm21.5-.17-.128-.052c.035-.085.068-.171.1-.257l.129.049q-.049.131-.1.26m-21.708-.347q-.048-.13-.093-.262l.131-.045q.044.13.092.259Zm21.905-.175-.13-.046q.045-.129.088-.26l.131.043c-.029.088-.058.176-.089.263m-22.085-.351q-.042-.132-.081-.266l.133-.039c.026.088.052.176.08.263Zm22.257-.178-.133-.039q.039-.131.076-.264l.133.037q-.037.134-.076.267M6.907,132.1c-.024-.089-.047-.179-.068-.269l.134-.032c.022.089.044.178.067.266Zm22.559-.18-.134-.033q.033-.133.063-.268l.135.03q-.031.136-.064.27m-22.689-.36q-.029-.136-.055-.272l.136-.026c.017.09.035.18.055.269Zm22.81-.182-.136-.027q.027-.134.051-.27l.136.024c-.016.092-.033.182-.051.273m-22.915-.364c-.015-.091-.03-.183-.043-.275l.137-.02q.02.136.042.271Zm23.011-.183-.136-.021q.021-.136.038-.272l.137.018c-.012.092-.025.184-.039.275m-23.09-.367c-.011-.092-.021-.184-.03-.277l.138-.013c.009.091.019.182.03.273Zm23.161-.185-.137-.015c.009-.091.018-.182.025-.274l.138.011c-.008.092-.016.185-.026.277m-23.215-.368q-.01-.138-.017-.278l.138-.007q.007.138.018.274ZM29.8,129.72l-.138-.008q.008-.137.013-.274l.138,0q0,.139-.013.278m-23.29-.37c0-.092,0-.185,0-.278h.138q0,.138,0,.275Zm23.31-.186-.138,0c0-.054,0-.109,0-.164,0-.037,0-.075,0-.113l.138,0c0,.037,0,.074,0,.11,0,.055,0,.111,0,.166M6.5,128.8c0-.09-.005-.182-.009-.275l.138-.006c0,.094.008.187.01.278Zm23.33-.183-.138-.008c.005-.09.012-.183.019-.277l.138.011q-.011.14-.019.274M6.48,128.247l-.015-.276.138-.008.015.276Zm23.395-.181-.138-.012.025-.275.138.012ZM6.45,127.694c0-.092-.009-.185-.012-.277l.138,0q.005.137.012.275Zm23.474-.18-.138-.012c.008-.091.015-.183.022-.274l.138.01c-.007.092-.014.184-.022.277m-23.493-.375v-.132c0-.049,0-.1,0-.146l.138,0c0,.048,0,.1,0,.144v.131Zm23.532-.179-.138-.007c0-.092.008-.184.009-.274l.138,0q0,.138-.01.279M6.58,126.59l-.138-.008c.006-.095.014-.188.025-.279l.137.017c-.01.088-.018.179-.024.271m23.254-.184q0-.139-.015-.272l.138-.012c.008.09.013.184.016.28ZM6.646,126.05l-.135-.027a2.828,2.828,0,0,1,.068-.275l.132.041a2.661,2.661,0,0,0-.065.261m23.138-.184a2.083,2.083,0,0,0-.063-.26l.132-.042a2.206,2.206,0,0,1,.068.277ZM6.8,125.539l-.126-.057a1.773,1.773,0,0,1,.139-.251l.115.077a1.611,1.611,0,0,0-.128.231m22.814-.175a.944.944,0,0,0-.151-.207l.1-.1a1.1,1.1,0,0,1,.174.237ZM7.1,125.1l-.1-.1a1.449,1.449,0,0,1,.224-.184l.077.115a1.327,1.327,0,0,0-.2.166m22.165-.1a.942.942,0,0,0-.242-.085l.029-.135a1.078,1.078,0,0,1,.277.1Zm-.513-.142q-.138-.031-.271-.065l.035-.134c.087.023.176.044.266.064ZM7.533,124.8l-.066-.121q.123-.067.249-.127l.06.124q-.123.059-.242.124m20.678-.076q-.135-.04-.266-.085l.044-.131q.128.044.261.083Zm-20.187-.161-.054-.127q.128-.055.258-.105l.05.129c-.085.033-.17.068-.254.1m19.659-.018q-.132-.05-.258-.1l.054-.127q.125.053.253.1Zm-19.148-.181-.047-.13.261-.091.045.131-.259.091m18.636-.039q-.127-.061-.249-.126l.065-.122q.119.064.244.123Zm-18.116-.14-.044-.131.262-.086.043.131Zm17.623-.123q-.121-.072-.237-.148l.076-.116q.113.074.232.144Zm-17.1-.051-.045-.131.26-.091.046.13c-.087.031-.174.061-.262.091m.522-.187-.049-.129c.085-.033.17-.066.254-.1l.053.128q-.128.054-.259.1m16.109-.067q-.114-.082-.223-.168l.086-.109q.106.084.218.164Zm-15.6-.148-.058-.125q.124-.058.245-.12l.064.122q-.124.065-.251.123m15.158-.2q-.106-.092-.207-.188l.1-.1c.066.063.133.123.2.184Zm-14.663-.06-.07-.119c.078-.046.155-.094.23-.144l.077.115c-.078.052-.157.1-.237.149m.465-.312-.084-.11q.107-.081.21-.171l.091.1c-.07.061-.143.121-.217.177m13.793-.013q-.1-.1-.189-.206l.1-.091c.06.068.122.135.185.2ZM12,122.671l-.1-.1c.063-.063.126-.13.185-.2l.1.091c-.061.07-.126.139-.191.2m13-.063q-.088-.109-.171-.221l.111-.082q.081.11.167.216Zm-12.633-.358-.11-.084q.081-.106.158-.221l.115.077q-.079.119-.163.228m12.3-.09q-.079-.115-.152-.234l.117-.073q.072.116.149.229Zm-11.99-.375-.119-.07q.067-.115.131-.238l.123.063q-.065.127-.135.245m11.695-.1q-.069-.121-.134-.244l.122-.064q.064.121.131.24Zm-11.439-.4-.126-.057q.055-.121.106-.251l.128.051q-.053.132-.109.257m11.181-.095c-.04-.084-.079-.168-.117-.253l.127-.056c.036.084.075.167.114.249Zm-10.975-.424-.131-.045q.044-.126.085-.26l.132.04q-.042.136-.086.265m10.75-.087q-.052-.129-.1-.26l.13-.048q.047.129.1.256ZM13.3,120.237l-.134-.036q.035-.129.066-.265l.135.031q-.032.138-.067.27m10.4-.078c-.029-.088-.058-.176-.084-.265l.132-.04q.04.131.083.262Zm-10.27-.464-.135-.027c.018-.088.034-.178.05-.27l.136.024q-.024.14-.051.273m10.108-.068q-.037-.134-.07-.269l.134-.033q.033.133.069.266Zm-10.013-.479-.137-.02q.019-.133.037-.272l.137.017q-.018.14-.038.275m9.879-.06c-.02-.09-.039-.181-.057-.272l.136-.027q.027.134.057.269Zm-9.81-.49-.137-.014q.014-.134.026-.274l.138.012q-.012.141-.026.276m9.7-.055c-.016-.091-.031-.182-.045-.273l.137-.021c.014.09.029.181.045.271Zm-9.654-.5-.138-.009q.009-.135.016-.275l.138.007c0,.093-.01.186-.016.277m9.57-.05q-.019-.138-.034-.276l.137-.016q.015.136.034.273Zm-9.541-.5-.138,0q0-.136.008-.275l.138,0c0,.094,0,.186-.008.277m9.478-.048c-.009-.092-.017-.185-.024-.277l.137-.011q.011.137.024.274Zm-9.465-.507h-.138c0-.065,0-.131,0-.2v-.078h.138v.079c0,.067,0,.133,0,.2m9.422-.047c-.006-.093-.01-.185-.015-.277l.138-.006q.006.137.014.275Zm-9.562-.505c0-.091,0-.182-.006-.276l.138,0q0,.14.006.277Zm9.537-.05c0-.093,0-.186-.006-.277l.138,0q0,.137.006.276Zm-9.552-.5q0-.136-.011-.276l.138-.006c0,.093.008.186.011.277Zm9.683-.053h-.138q0-.14,0-.278l.138,0c0,.091,0,.183,0,.275m-9.708-.5q-.007-.136-.016-.275l.138-.009c.006.093.011.185.016.276Zm9.717-.053-.138,0q0-.14.01-.277l.138.006q-.006.136-.01.275m-9.751-.5q-.01-.136-.021-.275l.138-.011c.008.093.015.185.021.276Zm9.776-.053-.138-.008c.005-.094.011-.186.018-.277l.138.01q-.009.135-.018.275m-9.819-.5c-.008-.091-.016-.182-.025-.275l.138-.013c.009.093.017.185.025.276Zm9.858-.053-.138-.012q.012-.141.025-.276l.138.013q-.013.134-.025.275m-9.909-.5q-.013-.136-.028-.275l.137-.014q.015.139.028.275Zm9.962-.052-.137-.015q.016-.142.032-.276l.137.017q-.016.132-.032.274m-10.02-.5q-.016-.136-.032-.274l.137-.016q.017.139.032.275Zm10.087-.05-.137-.019q.02-.145.039-.275l.137.02q-.019.129-.039.273m-10.152-.5c-.011-.091-.023-.182-.035-.274l.137-.018q.018.138.035.275Zm10.234-.047-.136-.022c.017-.1.033-.193.047-.274l.136.025q-.022.12-.047.271" transform="translate(-5.664 -96.382)" fill="#fff"/>
    <path id="Tracé_127963" data-name="Tracé 127963" d="M71.04,272.369a5.275,5.275,0,1,1-10.55,0" transform="translate(-53.287 -237.487)"/>
    <path id="Tracé_127964" data-name="Tracé 127964" d="M138.189,277.729l-.138,0c0-.045,0-.09,0-.136h.138q0,.071,0,.141" transform="translate(-121.612 -242.084)" fill="#3a3a3a"/>
    <path id="Tracé_127965" data-name="Tracé 127965" d="M74.478,284.692c-.092,0-.186-.009-.279-.018l.014-.137c.089.009.179.015.27.018Zm.28,0,0-.138c.09,0,.181-.009.27-.019l.014.138c-.092.01-.186.016-.279.019m-.836-.056c-.092-.016-.184-.034-.274-.056l.032-.134c.087.021.176.039.265.054Zm1.393,0-.024-.136c.089-.015.178-.034.265-.055l.033.134c-.09.022-.182.041-.274.057m-1.937-.13c-.089-.028-.177-.059-.264-.093l.05-.128c.084.033.17.063.255.09Zm2.48,0-.042-.132c.086-.027.171-.058.255-.091l.051.128c-.086.034-.175.066-.263.094m-3-.2c-.084-.04-.167-.083-.249-.129l.068-.12c.079.044.16.086.24.124Zm3.521,0-.06-.125c.081-.039.161-.081.24-.125l.068.121c-.081.046-.164.089-.248.129m-4.009-.271c-.077-.051-.154-.105-.229-.161l.083-.11c.072.055.146.107.221.156Zm4.5,0-.076-.115c.075-.049.149-.1.221-.156l.084.11c-.074.056-.151.111-.229.162m-4.942-.335c-.07-.061-.139-.126-.2-.191l.1-.1c.063.063.13.125.2.184Zm5.387,0-.091-.1c.068-.059.134-.121.2-.185l.1.1c-.066.066-.135.13-.2.191m-5.784-.391c-.061-.07-.12-.143-.177-.217l.11-.083q.082.108.171.209Zm6.179,0-.1-.091q.089-.1.171-.21l.11.084c-.056.074-.115.147-.177.217m-6.518-.44c-.051-.078-.1-.158-.146-.239l.12-.068c.044.078.091.155.141.231Zm6.856-.005-.115-.076c.049-.075.1-.153.141-.231l.12.068c-.046.081-.095.162-.146.239m-7.131-.482c-.04-.083-.078-.169-.112-.256l.128-.051c.033.084.07.167.108.247Zm7.406-.006-.125-.059q.058-.122.108-.249l.129.051c-.034.086-.071.172-.112.257m-7.612-.513c-.028-.089-.054-.18-.076-.27l.134-.033c.021.086.046.174.073.26Zm7.818-.008-.132-.042c.027-.085.052-.173.073-.26l.134.033c-.022.091-.048.181-.075.269m-7.951-.536c-.016-.091-.028-.184-.038-.277l.137-.014c.01.09.022.179.037.268Zm8.083-.008-.136-.023c.015-.088.027-.178.037-.268l.137.014c-.009.092-.022.186-.038.277" transform="translate(-62.136 -245.089)" fill="#3a3a3a"/>
    <path id="Tracé_127966" data-name="Tracé 127966" d="M70.352,277.729q0-.07,0-.141h.138c0,.046,0,.091,0,.136Z" transform="translate(-61.973 -242.084)" fill="#3a3a3a"/>
    <path id="Tracé_127967" data-name="Tracé 127967" d="M95.271,122.222a.784.784,0,0,0-1.521-.135.785.785,0,1,0-1.295.807h0l1.363,1.32,1.286-1.383h0a.781.781,0,0,0,.174-.61" transform="translate(-81.239 -104.626)"/>
  </g>
</svg>
