<svg xmlns="http://www.w3.org/2000/svg" width="17" height="17" viewBox="0 0 17 17">
  <g id="ios-time-outline" transform="translate(0 0)">
    <path id="Tracé_871" data-name="Tracé 871" d="M11.5,3A8.5,8.5,0,1,0,20,11.5,8.5,8.5,0,0,0,11.5,3Zm5.582,14.082a7.85,7.85,0,1,1,1.692-2.508A7.911,7.911,0,0,1,17.082,17.082Z" transform="translate(-3 -3)"/>
    <circle id="Ellipse_306" data-name="Ellipse 306" cx="0.291" cy="0.291" r="0.291" transform="translate(8.208 1.457)"/>
    <circle id="Ellipse_307" data-name="Ellipse 307" cx="0.291" cy="0.291" r="0.291" transform="translate(8.208 14.961)"/>
    <circle id="Ellipse_308" data-name="Ellipse 308" cx="0.291" cy="0.291" r="0.291" transform="translate(14.961 8.209)"/>
    <circle id="Ellipse_309" data-name="Ellipse 309" cx="0.291" cy="0.291" r="0.291" transform="translate(1.456 8.209)"/>
    <circle id="Ellipse_310" data-name="Ellipse 310" cx="0.291" cy="0.291" r="0.291" transform="translate(4.864 2.316)"/>
    <circle id="Ellipse_311" data-name="Ellipse 311" cx="0.291" cy="0.291" r="0.291" transform="translate(11.553 14.101)"/>
    <circle id="Ellipse_312" data-name="Ellipse 312" cx="0.291" cy="0.291" r="0.291" transform="translate(14.101 4.864)"/>
    <circle id="Ellipse_313" data-name="Ellipse 313" cx="0.291" cy="0.291" r="0.291" transform="translate(2.316 11.553)"/>
    <circle id="Ellipse_314" data-name="Ellipse 314" cx="0.291" cy="0.291" r="0.291" transform="translate(2.316 4.864)"/>
    <circle id="Ellipse_315" data-name="Ellipse 315" cx="0.291" cy="0.291" r="0.291" transform="translate(14.101 11.553)"/>
    <circle id="Ellipse_316" data-name="Ellipse 316" cx="0.291" cy="0.291" r="0.291" transform="translate(11.553 2.316)"/>
    <circle id="Ellipse_317" data-name="Ellipse 317" cx="0.291" cy="0.291" r="0.291" transform="translate(4.864 14.101)"/>
    <path id="Tracé_872" data-name="Tracé 872" d="M21.5,18.934a.589.589,0,0,0-.488-.291l-1.384-2.309a.292.292,0,1,0-.5.3l1.369,2.29a.586.586,0,0,0-.007.594.569.569,0,0,0,.215.211v4.446a.291.291,0,0,0,.583,0V19.732A.586.586,0,0,0,21.5,18.934Z" transform="translate(-12.531 -10.631)"/>
  </g>
</svg>
